<mxfile host="app.diagrams.net" modified="2024-05-13T08:56:47.212Z" agent="Mozilla/5.0 (Windows NT 10.0; Win64; x64) AppleWebKit/537.36 (KHTML, like Gecko) Chrome/124.0.0.0 Safari/537.36" version="24.4.0" etag="pbidbNBvmh6QVj1XT7pW" type="github">
  <diagram name="Страница — 1" id="JOkEzcSPFHBbC7LoMWct">
    <mxGraphModel>
      <root>
        <mxCell id="0" />
        <mxCell id="1" parent="0" />
      </root>
    </mxGraphModel>
  </diagram>
</mxfile>
